<svg width="23" height="23" viewBox="0 0 23 23" fill="none" xmlns="http://www.w3.org/2000/svg">
<mask id="path-1-inside-1_4_13" fill="white">
<path fill-rule="evenodd" clip-rule="evenodd" d="M6.81201 0.242798C3.18697 0.242798 0.248291 3.18148 0.248291 6.80652V15.585C0.248291 19.21 3.18697 22.1487 6.81201 22.1487H15.5905C19.2155 22.1487 22.1542 19.21 22.1542 15.585V6.80652C22.1542 3.18148 19.2155 0.242798 15.5905 0.242798H6.81201ZM11.2886 17.0472C10.7851 17.0472 10.377 16.6391 10.377 16.1356V12.2032H6.45289C5.94941 12.2032 5.54126 11.7951 5.54126 11.2916C5.54126 10.7881 5.94941 10.38 6.45289 10.38H10.377V6.44349C10.377 5.94001 10.7851 5.53186 11.2886 5.53186C11.7921 5.53186 12.2002 5.94001 12.2002 6.44349V10.38H16.145C16.6485 10.38 17.0566 10.7881 17.0566 11.2916C17.0566 11.7951 16.6485 12.2032 16.145 12.2032H12.2002V16.1356C12.2002 16.6391 11.7921 17.0472 11.2886 17.0472Z"/>
</mask>
<path fill-rule="evenodd" clip-rule="evenodd" d="M6.81201 0.242798C3.18697 0.242798 0.248291 3.18148 0.248291 6.80652V15.585C0.248291 19.21 3.18697 22.1487 6.81201 22.1487H15.5905C19.2155 22.1487 22.1542 19.21 22.1542 15.585V6.80652C22.1542 3.18148 19.2155 0.242798 15.5905 0.242798H6.81201ZM11.2886 17.0472C10.7851 17.0472 10.377 16.6391 10.377 16.1356V12.2032H6.45289C5.94941 12.2032 5.54126 11.7951 5.54126 11.2916C5.54126 10.7881 5.94941 10.38 6.45289 10.38H10.377V6.44349C10.377 5.94001 10.7851 5.53186 11.2886 5.53186C11.7921 5.53186 12.2002 5.94001 12.2002 6.44349V10.38H16.145C16.6485 10.38 17.0566 10.7881 17.0566 11.2916C17.0566 11.7951 16.6485 12.2032 16.145 12.2032H12.2002V16.1356C12.2002 16.6391 11.7921 17.0472 11.2886 17.0472Z" fill="black"/>
<path d="M10.377 12.2032H12.3826V10.1976H10.377V12.2032ZM10.377 10.38V12.3855H12.3826V10.38H10.377ZM12.2002 10.38H10.1947V12.3855H12.2002V10.38ZM12.2002 12.2032V10.1976H10.1947V12.2032H12.2002ZM2.25387 6.80652C2.25387 4.28913 4.29462 2.24838 6.81201 2.24838V-1.76278C2.07932 -1.76278 -1.75729 2.07383 -1.75729 6.80652H2.25387ZM2.25387 15.585V6.80652H-1.75729V15.585H2.25387ZM6.81201 20.1431C4.29462 20.1431 2.25387 18.1024 2.25387 15.585H-1.75729C-1.75729 20.3177 2.07932 24.1543 6.81201 24.1543V20.1431ZM15.5905 20.1431H6.81201V24.1543H15.5905V20.1431ZM20.1486 15.585C20.1486 18.1024 18.1078 20.1431 15.5905 20.1431V24.1543C20.3232 24.1543 24.1598 20.3177 24.1598 15.585H20.1486ZM20.1486 6.80652V15.585H24.1598V6.80652H20.1486ZM15.5905 2.24838C18.1079 2.24838 20.1486 4.28913 20.1486 6.80652H24.1598C24.1598 2.07382 20.3232 -1.76278 15.5905 -1.76278V2.24838ZM6.81201 2.24838H15.5905V-1.76278H6.81201V2.24838ZM8.3714 16.1356C8.3714 17.7467 9.67748 19.0528 11.2886 19.0528V15.0417C11.8928 15.0417 12.3826 15.5314 12.3826 16.1356H8.3714ZM8.3714 12.2032V16.1356H12.3826V12.2032H8.3714ZM6.45289 14.2088H10.377V10.1976H6.45289V14.2088ZM3.53568 11.2916C3.53568 12.9027 4.84176 14.2088 6.45289 14.2088V10.1976C7.05706 10.1976 7.54684 10.6874 7.54684 11.2916H3.53568ZM6.45289 8.37438C4.84176 8.37438 3.53568 9.68046 3.53568 11.2916H7.54684C7.54684 11.8958 7.05706 12.3855 6.45289 12.3855V8.37438ZM10.377 8.37438H6.45289V12.3855H10.377V8.37438ZM8.3714 6.44349V10.38H12.3826V6.44349H8.3714ZM11.2886 3.52628C9.67748 3.52628 8.3714 4.83236 8.3714 6.44349H12.3826C12.3826 7.04766 11.8928 7.53744 11.2886 7.53744V3.52628ZM14.2058 6.44349C14.2058 4.83236 12.8997 3.52628 11.2886 3.52628V7.53744C10.6844 7.53744 10.1947 7.04766 10.1947 6.44349H14.2058ZM14.2058 10.38V6.44349H10.1947V10.38H14.2058ZM16.145 8.37438H12.2002V12.3855H16.145V8.37438ZM19.0622 11.2916C19.0622 9.68046 17.7561 8.37438 16.145 8.37438V12.3855C15.5408 12.3855 15.0511 11.8958 15.0511 11.2916H19.0622ZM16.145 14.2088C17.7561 14.2088 19.0622 12.9027 19.0622 11.2916H15.0511C15.0511 10.6874 15.5408 10.1976 16.145 10.1976V14.2088ZM12.2002 14.2088H16.145V10.1976H12.2002V14.2088ZM14.2058 16.1356V12.2032H10.1947V16.1356H14.2058ZM11.2886 19.0528C12.8997 19.0528 14.2058 17.7467 14.2058 16.1356H10.1947C10.1947 15.5314 10.6844 15.0417 11.2886 15.0417V19.0528Z" fill="black" mask="url(#path-1-inside-1_4_13)"/>
</svg>
