<svg width="25" height="21" viewBox="0 0 25 21" fill="none" xmlns="http://www.w3.org/2000/svg">
<path fill-rule="evenodd" clip-rule="evenodd" d="M13.6073 0.815063C14.1611 0.815063 14.61 1.26403 14.61 1.81785C14.61 2.37168 14.1611 2.82064 13.6073 2.82064H8.97761C6.25883 2.82064 4.05482 5.02465 4.05482 7.74344V10.1275C4.05482 10.3934 3.94917 10.6485 3.76111 10.8366C3.12939 11.4683 2.04924 11.0209 2.04924 10.1275V7.74344C2.04924 3.917 5.15118 0.815063 8.97761 0.815063H13.6073ZM20.1509 12.6175C20.1509 12.0637 20.5999 11.6147 21.1537 11.6147C21.7075 11.6147 22.1565 12.0637 22.1565 12.6175V13.97C22.1565 17.7964 19.0545 20.8983 15.2281 20.8983H8.97761C7.34611 20.8983 5.84632 20.3344 4.66253 19.3908C4.23998 19.054 4.25228 18.4304 4.63437 18.0483C5.0343 17.6484 5.68266 17.6708 6.14496 17.9966C6.94603 18.5612 7.9231 18.8927 8.97761 18.8927H15.2281C17.9469 18.8927 20.1509 16.6887 20.1509 13.97V12.6175ZM16.0729 3.38404C16.0729 2.83021 16.5219 2.38125 17.0757 2.38125H22.6585C23.4137 2.38125 24.0259 2.99347 24.0259 3.74869V9.34714C24.0259 9.90097 23.5769 10.3499 23.0231 10.3499C22.4693 10.3499 22.0203 9.90097 22.0203 9.34714V5.79326L14.0442 13.7693C13.5102 14.3034 12.6444 14.3034 12.1104 13.7693L8.94805 10.607L2.22298 17.332C1.83136 17.7237 1.19643 17.7236 0.804816 17.332C0.413204 16.9404 0.413206 16.3055 0.804822 15.9139L7.98113 8.73762C8.51515 8.20361 9.38096 8.20361 9.91498 8.73763L13.0773 11.8999L20.5904 4.38683H17.0757C16.5219 4.38683 16.0729 3.93786 16.0729 3.38404Z" fill="black"/>
</svg>
