<svg width="23" height="23" viewBox="0 0 23 23" fill="none" xmlns="http://www.w3.org/2000/svg">
<path fill-rule="evenodd" clip-rule="evenodd" d="M9.19697 0.128599C9.77717 0.025785 10.2803 0.494483 10.2803 1.08372C10.2803 1.60556 9.88153 2.03561 9.36964 2.13705C8.22094 2.36467 7.15028 2.80921 6.20214 3.42618C5.76743 3.70905 5.18606 3.6815 4.82112 3.31298C4.404 2.89177 4.43466 2.20001 4.92496 1.86682C6.18703 1.00916 7.63549 0.405301 9.19697 0.128599ZM13.1082 2.1774C12.6065 2.06656 12.2203 1.64016 12.2203 1.12637C12.2203 0.527995 12.7374 0.055852 13.3242 0.173066C14.8366 0.475176 16.2379 1.08528 17.4598 1.93522C17.941 2.26997 17.9696 2.95275 17.559 3.37124C17.1917 3.74563 16.6022 3.7714 16.1657 3.48058C15.2501 2.87049 14.2173 2.42243 13.1082 2.1774ZM18.8925 4.78217C19.314 4.35252 20.0185 4.38059 20.3533 4.88074C21.1666 6.09572 21.7459 7.48059 22.0267 8.97087C22.1366 9.55438 21.6662 10.0645 21.0724 10.0645C20.5546 10.0645 20.1263 9.67199 20.0201 9.16516C19.7916 8.07422 19.3671 7.05534 18.7851 6.14705C18.5096 5.71711 18.5349 5.14669 18.8925 4.78217ZM20.3516 14.2327C21.0481 14.2327 21.5463 14.9063 21.2625 15.5423C19.5358 19.4125 15.6542 22.11 11.1426 22.11C7.51211 22.11 4.28957 20.3632 2.2696 17.6643V19.2802C2.2696 19.8341 1.82063 20.283 1.26681 20.283C0.712983 20.283 0.264018 19.8341 0.264018 19.2802V15.4334C0.264018 14.6782 0.876242 14.0659 1.63146 14.0659H5.12943C5.68326 14.0659 6.13222 14.5149 6.13222 15.0687C6.13222 15.6226 5.68326 16.0715 5.12943 16.0715H3.59861C5.22559 18.5033 7.99712 20.1044 11.1426 20.1044C14.7714 20.1044 17.9025 17.9734 19.3527 14.8946C19.537 14.5033 19.9191 14.2327 20.3516 14.2327ZM1.21286 10.0645C0.61908 10.0645 0.148647 9.5544 0.258584 8.97088C0.547135 7.43934 1.15096 6.01911 2.00006 4.7802C2.33657 4.28921 3.03193 4.26329 3.45077 4.68624C3.81418 5.05321 3.83776 5.63175 3.55436 6.06352C2.94447 6.9927 2.50065 8.04065 2.2651 9.16516C2.15894 9.67198 1.73069 10.0645 1.21286 10.0645ZM8.5226 9.2808C8.79797 8.76944 9.53147 8.76944 9.80684 9.2808L10.555 10.6701C10.6226 10.7957 10.7257 10.8988 10.8513 10.9664L12.2406 11.7145C12.7519 11.9899 12.7519 12.7234 12.2406 12.9988L10.8513 13.7469C10.7257 13.8146 10.6226 13.9176 10.555 14.0433L9.80684 15.4325C9.53147 15.9439 8.79797 15.9439 8.5226 15.4325L7.77447 14.0433C7.70681 13.9176 7.60378 13.8146 7.47813 13.7469L6.08885 12.9988C5.57749 12.7234 5.57749 11.9899 6.08885 11.7145L7.47813 10.9664C7.60378 10.8988 7.70681 10.7957 7.77447 10.6701L8.5226 9.2808ZM14.4562 6.53967C14.3185 6.28399 13.9518 6.28399 13.8141 6.53967L13.4662 7.1857C13.4324 7.24852 13.3809 7.30004 13.318 7.33387L12.672 7.68176C12.4163 7.81945 12.4163 8.18619 12.672 8.32388L13.318 8.67177C13.3809 8.7056 13.4324 8.75712 13.4662 8.81994L13.8141 9.46597C13.9518 9.72165 14.3185 9.72165 14.4562 9.46597L14.8041 8.81994C14.8379 8.75712 14.8895 8.7056 14.9523 8.67177L15.5983 8.32388C15.854 8.18619 15.854 7.81945 15.5983 7.68176L14.9523 7.33387C14.8895 7.30004 14.8379 7.24852 14.8041 7.1857L14.4562 6.53967Z" fill="black"/>
</svg>
