<svg width="22" height="24" viewBox="0 0 22 24" fill="none" xmlns="http://www.w3.org/2000/svg">
<path fill-rule="evenodd" clip-rule="evenodd" d="M8.10225 1.05653C8.10225 0.502706 7.65329 0.0537415 7.09946 0.0537415C6.54563 0.0537415 6.09667 0.502706 6.09667 1.05653V1.77733H6.08564C2.86338 1.77733 0.251221 4.38948 0.251221 7.61174V17.9419C0.251221 21.1642 2.86337 23.7763 6.08563 23.7763H16.0552C19.2774 23.7763 21.8896 21.1642 21.8896 17.9419V7.61175C21.8896 4.38949 19.2774 1.77733 16.0552 1.77733H16.0316V1.05653C16.0316 0.502706 15.5826 0.0537415 15.0288 0.0537415C14.475 0.0537415 14.026 0.502706 14.026 1.05653V1.77733H8.10225V1.05653ZM6.09667 3.78291V4.66277C6.09667 5.21659 6.54563 5.66556 7.09946 5.66556C7.65329 5.66556 8.10225 5.21659 8.10225 4.66277V3.78291H14.026V4.66277C14.026 5.21659 14.475 5.66556 15.0288 5.66556C15.5826 5.66556 16.0316 5.21659 16.0316 4.66277V3.78291H16.0552C18.1698 3.78291 19.884 5.49714 19.884 7.61175V7.98747H2.2568V7.61174C2.2568 5.49714 3.97103 3.78291 6.08564 3.78291H6.09667ZM2.2568 9.99305V17.9419C2.2568 20.0565 3.97103 21.7707 6.08563 21.7707H16.0552C18.1698 21.7707 19.884 20.0565 19.884 17.9419V9.99305H2.2568ZM8.17676 13.3178C8.17676 13.9152 7.69251 14.3994 7.09517 14.3994C6.49782 14.3994 6.01357 13.9152 6.01357 13.3178C6.01357 12.7205 6.49782 12.2362 7.09517 12.2362C7.69251 12.2362 8.17676 12.7205 8.17676 13.3178ZM15.0323 14.3994C15.6297 14.3994 16.1139 13.9152 16.1139 13.3178C16.1139 12.7205 15.6297 12.2362 15.0323 12.2362C14.435 12.2362 13.9507 12.7205 13.9507 13.3178C13.9507 13.9152 14.435 14.3994 15.0323 14.3994ZM12.1453 13.3178C12.1453 13.9152 11.6611 14.3994 11.0637 14.3994C10.4664 14.3994 9.98214 13.9152 9.98214 13.3178C9.98214 12.7205 10.4664 12.2362 11.0637 12.2362C11.6611 12.2362 12.1453 12.7205 12.1453 13.3178ZM7.09517 18.7264C7.69251 18.7264 8.17676 18.2421 8.17676 17.6448C8.17676 17.0474 7.69251 16.5632 7.09517 16.5632C6.49782 16.5632 6.01357 17.0474 6.01357 17.6448C6.01357 18.2421 6.49782 18.7264 7.09517 18.7264ZM16.1139 17.6448C16.1139 18.2421 15.6297 18.7264 15.0323 18.7264C14.435 18.7264 13.9507 18.2421 13.9507 17.6448C13.9507 17.0474 14.435 16.5632 15.0323 16.5632C15.6297 16.5632 16.1139 17.0474 16.1139 17.6448ZM11.0637 18.7264C11.6611 18.7264 12.1453 18.2421 12.1453 17.6448C12.1453 17.0474 11.6611 16.5632 11.0637 16.5632C10.4664 16.5632 9.98214 17.0474 9.98214 17.6448C9.98214 18.2421 10.4664 18.7264 11.0637 18.7264Z" fill="black"/>
</svg>
