<svg width="23" height="22" viewBox="0 0 23 22" fill="none" xmlns="http://www.w3.org/2000/svg">
<path d="M21.0256 11.1046V20.1136C21.0256 20.4 20.7935 20.6321 20.5071 20.6321H14.4191C14.393 20.6321 14.3719 20.611 14.3719 20.585V14.8498C14.3719 13.2311 13.0598 11.919 11.4411 11.919C9.82251 11.919 8.51035 13.2311 8.51035 14.8498V20.585C8.51035 20.611 8.48924 20.6321 8.46319 20.6321H2.21673C1.93038 20.6321 1.69824 20.4 1.69824 20.1136V11.1046C1.69824 10.9663 1.75346 10.8338 1.85163 10.7365L10.9968 1.66683C11.199 1.46638 11.5249 1.46638 11.727 1.66683L20.8722 10.7365C20.9704 10.8338 21.0256 10.9663 21.0256 11.1046Z" stroke="black" stroke-width="2.00558" stroke-linecap="round"/>
</svg>
