<svg width="23" height="23" viewBox="0 0 23 23" fill="none" xmlns="http://www.w3.org/2000/svg">
<path fill-rule="evenodd" clip-rule="evenodd" d="M4.53963 21.4589L4.50366 21.4695L2.91144 21.9528C1.79726 22.291 0.755452 21.2516 1.09108 20.1366L1.63733 18.322C1.65172 18.2588 1.66857 18.1954 1.68796 18.1319L1.8034 17.7537C1.81272 17.7232 1.82337 17.6934 1.83526 17.6645L1.89174 17.4769C1.9214 17.3783 1.90776 17.272 1.85596 17.183C0.911873 15.5619 0.371094 13.6769 0.371094 11.6657C0.371094 5.60181 5.28703 0.686035 11.3512 0.686035C17.4153 0.686035 22.3312 5.60181 22.3312 11.6657C22.3312 17.7296 17.4153 22.6454 11.3512 22.6454C9.35363 22.6454 7.48069 22.112 5.86699 21.1799C5.778 21.1285 5.6718 21.1152 5.57346 21.145L4.53963 21.4589ZM4.85541 19.2671C4.81817 19.2738 4.78093 19.2826 4.74382 19.2937L4.30883 19.4239C3.90576 19.5446 3.52886 19.2012 3.58661 18.8043L3.64343 18.6156L3.81219 18.055C4.00658 17.4092 3.91262 16.7293 3.58908 16.1737C2.81861 14.8507 2.37667 13.3129 2.37667 11.6657C2.37667 6.70952 6.39462 2.69162 11.3512 2.69162C16.3077 2.69162 20.3256 6.70952 20.3256 11.6657C20.3256 16.6219 16.3077 20.6398 11.3512 20.6398C9.71514 20.6398 8.18704 20.2039 6.87014 19.4432C6.31427 19.1222 5.63523 19.0304 4.99093 19.2259L4.85541 19.2671Z" fill="black"/>
</svg>
