<svg width="40" height="22" viewBox="0 0 40 22" fill="none" xmlns="http://www.w3.org/2000/svg">
<mask id="path-1-inside-1_4_72" fill="white">
<path fill-rule="evenodd" clip-rule="evenodd" d="M19.9094 20.8252C19.5147 21.1509 19.6814 21.8044 20.193 21.8044C26.2001 21.8044 31.0698 16.9347 31.0698 10.9276C31.0698 4.92049 26.2001 0.0507812 20.193 0.0507812C19.6803 0.0507812 19.5135 0.705635 19.9089 1.03199C22.7595 3.38431 24.5764 6.94436 24.5764 10.9288C24.5764 14.913 22.7597 18.4729 19.9094 20.8252ZM24.1724 18.9306C27.1139 17.4699 29.1356 14.4352 29.1356 10.9283C29.1356 7.42135 27.1139 4.38659 24.1726 2.9259C25.6607 5.23149 26.5257 7.9792 26.5257 10.9283C26.5257 13.8773 25.6607 16.625 24.1724 18.9306Z"/>
</mask>
<path fill-rule="evenodd" clip-rule="evenodd" d="M19.9094 20.8252C19.5147 21.1509 19.6814 21.8044 20.193 21.8044C26.2001 21.8044 31.0698 16.9347 31.0698 10.9276C31.0698 4.92049 26.2001 0.0507812 20.193 0.0507812C19.6803 0.0507812 19.5135 0.705635 19.9089 1.03199C22.7595 3.38431 24.5764 6.94436 24.5764 10.9288C24.5764 14.913 22.7597 18.4729 19.9094 20.8252ZM24.1724 18.9306C27.1139 17.4699 29.1356 14.4352 29.1356 10.9283C29.1356 7.42135 27.1139 4.38659 24.1726 2.9259C25.6607 5.23149 26.5257 7.9792 26.5257 10.9283C26.5257 13.8773 25.6607 16.625 24.1724 18.9306Z" fill="black"/>
<path d="M19.9094 20.8252L21.186 22.3721H21.186L19.9094 20.8252ZM19.9089 1.03199L21.1855 -0.514898L21.1855 -0.514898L19.9089 1.03199ZM24.1724 18.9306L22.4874 17.8429L18.5317 23.9709L25.0644 20.7269L24.1724 18.9306ZM24.1726 2.9259L25.0646 1.12962L18.5323 -2.11434L22.4875 4.01351L24.1726 2.9259ZM20.193 19.7988C20.948 19.7988 21.4913 20.3472 21.6447 20.9037C21.7846 21.4107 21.6384 21.9987 21.186 22.3721L18.6328 19.2784C17.7858 19.9774 17.5256 21.055 17.7779 21.9702C18.044 22.9348 18.9264 23.81 20.193 23.81V19.7988ZM29.0643 10.9276C29.0643 15.827 25.0925 19.7988 20.193 19.7988V23.81C27.3078 23.81 33.0754 18.0423 33.0754 10.9276H29.0643ZM20.193 2.05636C25.0925 2.05636 29.0643 6.02814 29.0643 10.9276H33.0754C33.0754 3.81284 27.3078 -1.9548 20.193 -1.9548V2.05636ZM21.1855 -0.514898C21.6373 -0.142012 21.7835 0.445325 21.6439 0.951885C21.4906 1.50809 20.9476 2.05636 20.193 2.05636V-1.9548C18.9257 -1.9548 18.0429 -1.0791 17.7769 -0.113881C17.5246 0.801694 17.7851 1.87964 18.6324 2.57887L21.1855 -0.514898ZM26.582 10.9288C26.582 6.32057 24.4779 2.20208 21.1855 -0.514898L18.6324 2.57887C21.0411 4.56654 22.5709 7.56816 22.5709 10.9288H26.582ZM21.186 22.3721C24.4781 19.6551 26.582 15.5368 26.582 10.9288H22.5709C22.5709 14.2892 21.0412 17.2907 18.6328 19.2784L21.186 22.3721ZM27.13 10.9283C27.13 13.6446 25.5661 15.9993 23.2804 17.1343L25.0644 20.7269C28.6618 18.9406 31.1411 15.2258 31.1411 10.9283H27.13ZM23.2805 4.72218C25.5661 5.8572 27.13 8.21194 27.13 10.9283H31.1411C31.1411 6.63076 28.6618 2.91599 25.0646 1.12962L23.2805 4.72218ZM28.5313 10.9283C28.5313 7.5815 27.5484 4.45792 25.8576 1.83828L22.4875 4.01351C23.7729 6.00507 24.5201 8.3769 24.5201 10.9283H28.5313ZM25.8574 20.0183C27.5484 17.3986 28.5313 14.275 28.5313 10.9283H24.5201C24.5201 13.4796 23.7729 15.8514 22.4874 17.8429L25.8574 20.0183Z" fill="black" mask="url(#path-1-inside-1_4_72)"/>
<mask id="path-3-inside-2_4_72" fill="white">
<path fill-rule="evenodd" clip-rule="evenodd" d="M28.3648 20.8099C27.9647 21.1414 28.1335 21.8046 28.653 21.8046C34.6601 21.8046 39.5298 16.9349 39.5298 10.9278C39.5298 4.92073 34.6601 0.0510244 28.653 0.0510244C28.1325 0.0510244 27.9634 0.715679 28.3643 1.04778C31.204 3.40023 33.013 6.95338 33.013 10.929C33.013 14.9045 31.2042 18.4575 28.3648 20.8099ZM32.6172 18.9304C35.5587 17.4697 37.5803 14.4349 37.5803 10.928C37.5803 7.4211 35.5587 4.38635 32.6173 2.92565C34.1054 5.23125 34.9705 7.97895 34.9705 10.928C34.9705 13.8771 34.1054 16.6248 32.6172 18.9304Z"/>
</mask>
<path fill-rule="evenodd" clip-rule="evenodd" d="M28.3648 20.8099C27.9647 21.1414 28.1335 21.8046 28.653 21.8046C34.6601 21.8046 39.5298 16.9349 39.5298 10.9278C39.5298 4.92073 34.6601 0.0510244 28.653 0.0510244C28.1325 0.0510244 27.9634 0.715679 28.3643 1.04778C31.204 3.40023 33.013 6.95338 33.013 10.929C33.013 14.9045 31.2042 18.4575 28.3648 20.8099ZM32.6172 18.9304C35.5587 17.4697 37.5803 14.4349 37.5803 10.928C37.5803 7.4211 35.5587 4.38635 32.6173 2.92565C34.1054 5.23125 34.9705 7.97895 34.9705 10.928C34.9705 13.8771 34.1054 16.6248 32.6172 18.9304Z" fill="black"/>
<path d="M28.3648 20.8099L29.6443 22.3543L29.6443 22.3543L28.3648 20.8099ZM28.3643 1.04778L27.0849 2.59225L28.3643 1.04778ZM32.6172 18.9304L30.9321 17.8427L26.9765 23.9707L33.5092 20.7267L32.6172 18.9304ZM32.6173 2.92565L33.5094 1.12937L26.9771 -2.11458L30.9322 4.01326L32.6173 2.92565ZM28.653 19.799C29.4042 19.799 29.9449 20.3452 30.0975 20.8985C30.2362 21.4016 30.0913 21.984 29.6443 22.3543L27.0852 19.2655C26.2382 19.9673 25.9776 21.047 26.2306 21.9646C26.4975 22.9324 27.3823 23.8102 28.653 23.8102V19.799ZM37.5243 10.9278C37.5243 15.8273 33.5525 19.799 28.653 19.799V23.8102C35.7678 23.8102 41.5354 18.0426 41.5354 10.9278H37.5243ZM28.653 2.05661C33.5525 2.05661 37.5243 6.02839 37.5243 10.9278H41.5354C41.5354 3.81308 35.7678 -1.95456 28.653 -1.95456V2.05661ZM29.6438 -0.496686C30.0903 -0.126803 30.2352 0.454869 30.0967 0.957592C29.9443 1.51059 29.4039 2.05661 28.653 2.05661V-1.95456C27.3816 -1.95456 26.4964 -1.07621 26.2296 -0.107863C25.9766 0.810212 26.2375 1.89026 27.0849 2.59225L29.6438 -0.496686ZM35.0186 10.929C35.0186 6.33098 32.9237 2.22045 29.6438 -0.496686L27.0849 2.59225C29.4844 4.58001 31.0074 7.57578 31.0074 10.929H35.0186ZM29.6443 22.3543C32.9239 19.6372 35.0186 15.5269 35.0186 10.929H31.0074C31.0074 14.2821 29.4845 17.2777 27.0852 19.2655L29.6443 22.3543ZM35.5747 10.928C35.5747 13.6443 34.0109 15.9991 31.7252 17.1341L33.5092 20.7267C37.1065 18.9403 39.5859 15.2255 39.5859 10.928H35.5747ZM31.7253 4.72193C34.0108 5.85695 35.5747 8.2117 35.5747 10.928H39.5859C39.5859 6.63051 37.1065 2.91574 33.5094 1.12937L31.7253 4.72193ZM36.9761 10.928C36.9761 7.58126 35.9932 4.45767 34.3024 1.83804L30.9322 4.01326C32.2177 6.00483 32.9649 8.37665 32.9649 10.928H36.9761ZM34.3022 20.0181C35.9932 17.3984 36.9761 14.2748 36.9761 10.928H32.9649C32.9649 13.4794 32.2177 15.8512 30.9321 17.8427L34.3022 20.0181Z" fill="black" mask="url(#path-3-inside-2_4_72)"/>
<circle cx="11.743" cy="10.9286" r="9.87401" stroke="black" stroke-width="2.00558"/>
</svg>
